<svg width="224" height="15" viewBox="0 0 224 15" fill="none" xmlns="http://www.w3.org/2000/svg">
<path d="M2.0503 11.9497C1.39933 11.3004 0.883081 10.5289 0.531222 9.67945C0.179364 8.83001 -0.00116644 7.91942 5.67105e-06 7C5.67105e-06 3.1339 3.1339 0 7 0C10.8661 0 14 3.1339 14 7C14 10.8661 10.8661 14 7 14H5.67105e-06L2.0503 11.9497ZM4.2 7.7C4.2 8.4426 4.495 9.15479 5.0201 9.6799C5.54521 10.205 6.2574 10.5 7 10.5C7.74261 10.5 8.4548 10.205 8.9799 9.6799C9.505 9.15479 9.8 8.4426 9.8 7.7H4.2Z" fill="#06F421"/>
<path fill-rule="evenodd" clip-rule="evenodd" d="M21.3879 0.750405C21.3376 0.748674 21.2875 0.757084 21.2405 0.775134C21.1935 0.793184 21.1507 0.820505 21.1145 0.855469C21.0783 0.890433 21.0495 0.932324 21.0298 0.978648C21.0102 1.02497 21 1.07478 21 1.12511V11.6686C21 11.7401 21.0204 11.8101 21.0589 11.8703C21.0974 11.9306 21.1522 11.9786 21.2171 12.0087L25.9669 14.2152C26.0175 14.2387 26.0727 14.2506 26.1285 14.2501C26.182 14.2497 26.2348 14.2378 26.2833 14.2153L30.8752 12.0822L35.4672 14.2152C35.5243 14.2417 35.5872 14.2533 35.6501 14.2491C35.7129 14.2449 35.7737 14.225 35.8267 14.1911C35.8798 14.1572 35.9235 14.1105 35.9538 14.0553C35.9841 14 36 13.9381 36 13.8751V6.13781C35.8004 6.50287 35.5477 6.83621 35.25 7.12691V13.2874L31.0983 11.3589L31.0805 8.24021C30.9282 8.20244 30.7778 8.15739 30.6299 8.10521L30.6483 11.3602L26.3469 13.3587L26.2916 3.66776L27.7037 3.01181C27.7818 2.67067 27.8977 2.33931 28.0494 2.02391L26.1249 2.91806L21.533 0.785055C21.4874 0.763911 21.4381 0.752128 21.3879 0.750405ZM21.75 1.71281L25.8413 3.61331L25.8969 13.3558L21.75 11.4289V1.71281Z" fill="#06F421"/>
<path d="M32.1094 0.00012207C29.9654 0.00012207 28.2185 1.74702 28.2185 3.89082C28.2185 6.03432 29.9654 7.78137 32.1092 7.78137C34.2527 7.78137 35.9998 6.03447 35.9998 3.89067C35.9999 1.74732 34.253 0.00012207 32.1092 0.00012207H32.1094ZM32.1094 0.864722C32.507 0.863872 32.9009 0.941565 33.2684 1.09334C33.6359 1.24512 33.9698 1.46799 34.251 1.74916C34.5321 2.03033 34.755 2.36426 34.9067 2.73179C35.0585 3.09932 35.1362 3.4932 35.1353 3.89082C35.1361 4.28843 35.0584 4.6823 34.9066 5.0498C34.7549 5.4173 34.532 5.7512 34.2508 6.03234C33.9696 6.31349 33.6357 6.53633 33.2682 6.68807C32.9007 6.83982 32.5068 6.91749 32.1092 6.91662C31.7116 6.91745 31.3178 6.83976 30.9503 6.68799C30.5828 6.53622 30.2489 6.31337 29.9678 6.03224C29.6867 5.7511 29.4638 5.41721 29.312 5.04973C29.1603 4.68225 29.0826 4.28841 29.0834 3.89082C29.0825 3.49321 29.1602 3.09934 29.312 2.73182C29.4637 2.36431 29.6865 2.03038 29.9677 1.74921C30.2488 1.46804 30.5827 1.24517 30.9502 1.09338C31.3177 0.941599 31.7116 0.863892 32.1092 0.864722H32.1094ZM30.9655 2.53272C30.8782 2.53272 30.7917 2.54992 30.7111 2.58333C30.6304 2.61674 30.5571 2.66571 30.4954 2.72745C30.4337 2.78918 30.3847 2.86247 30.3514 2.94313C30.318 3.02378 30.3008 3.11023 30.3008 3.19752C30.3008 3.28483 30.318 3.37129 30.3514 3.45195C30.3848 3.53262 30.4337 3.60591 30.4955 3.66765C30.5572 3.72939 30.6305 3.77836 30.7112 3.81176C30.7918 3.84516 30.8783 3.86234 30.9656 3.86232C31.0529 3.86232 31.1393 3.84513 31.22 3.81171C31.3006 3.7783 31.3739 3.72933 31.4356 3.6676C31.4974 3.60586 31.5463 3.53258 31.5797 3.45192C31.6131 3.37126 31.6303 3.28482 31.6303 3.19752C31.6303 3.11023 31.6131 3.02379 31.5796 2.94314C31.5462 2.86249 31.4973 2.78921 31.4355 2.72749C31.3738 2.66577 31.3005 2.61682 31.2199 2.58342C31.1392 2.55003 31.0528 2.53285 30.9655 2.53287V2.53272ZM33.253 2.53272C33.1657 2.53272 33.0792 2.54992 32.9986 2.58333C32.9179 2.61674 32.8446 2.66571 32.7829 2.72745C32.7212 2.78918 32.6722 2.86247 32.6389 2.94313C32.6055 3.02378 32.5883 3.11023 32.5883 3.19752C32.5883 3.28483 32.6055 3.37129 32.6389 3.45195C32.6723 3.53262 32.7212 3.60591 32.783 3.66765C32.8447 3.72939 32.918 3.77836 32.9987 3.81176C33.0793 3.84516 33.1658 3.86234 33.2531 3.86232C33.3404 3.86232 33.4268 3.84513 33.5075 3.81171C33.5881 3.7783 33.6614 3.72933 33.7231 3.6676C33.7849 3.60586 33.8338 3.53258 33.8672 3.45192C33.9006 3.37126 33.9178 3.28482 33.9178 3.19752C33.9178 3.11023 33.9006 3.02379 33.8671 2.94314C33.8337 2.86249 33.7848 2.78921 33.723 2.72749C33.6613 2.66577 33.588 2.61682 33.5074 2.58342C33.4267 2.55003 33.3403 2.53285 33.253 2.53287V2.53272ZM30.8704 4.89132C30.7946 4.89276 30.7212 4.91775 30.6603 4.96281C30.5993 5.00788 30.554 5.07078 30.5304 5.1428C30.5069 5.21482 30.5063 5.29238 30.5289 5.36473C30.5514 5.43707 30.5959 5.50061 30.6562 5.54652C31.031 5.84097 31.5419 5.98422 32.0849 5.99352C32.6279 6.00282 33.1489 5.87577 33.5437 5.60037C33.5834 5.57312 33.6173 5.53828 33.6435 5.49784C33.6697 5.45741 33.6877 5.41219 33.6963 5.36479C33.7049 5.31739 33.7041 5.26874 33.6938 5.22167C33.6836 5.17459 33.6641 5.13001 33.6365 5.09051C33.6089 5.051 33.5738 5.01734 33.5332 4.99148C33.4925 4.96561 33.4472 4.94806 33.3997 4.93982C33.3522 4.93158 33.3036 4.93282 33.2566 4.94347C33.2096 4.95412 33.1652 4.97397 33.1259 5.00187C32.9045 5.15637 32.5097 5.27082 32.0972 5.26377C31.6849 5.25672 31.3054 5.12817 31.1072 4.97247C31.0402 4.91836 30.9563 4.88967 30.8702 4.89147L30.8704 4.89132Z" fill="#06F421"/>
<circle cx="53.5" cy="6.5" r="2.5" fill="#D9D9D9"/>
<circle cx="61.5" cy="6.5" r="2.5" fill="#D9D9D9"/>
<circle cx="69.5" cy="6.5" r="2.5" fill="#D9D9D9"/>
<circle cx="77.5" cy="6.5" r="2.5" fill="#D9D9D9"/>
<circle cx="85.5" cy="6.5" r="2.5" fill="#D9D9D9"/>
<circle cx="93.5" cy="6.5" r="2.5" fill="#D9D9D9"/>
<circle cx="101.5" cy="6.5" r="2.5" fill="#D9D9D9"/>
<circle cx="109.5" cy="6.5" r="2.5" fill="#D9D9D9"/>
<circle cx="117.5" cy="6.5" r="2.5" fill="#D9D9D9"/>
<circle cx="125.5" cy="6.5" r="2.5" fill="#D9D9D9"/>
<circle cx="133.5" cy="6.5" r="2.5" fill="#D9D9D9"/>
<circle cx="141.5" cy="6.5" r="2.5" fill="#D9D9D9"/>
<circle cx="149.5" cy="6.5" r="2.5" fill="#D9D9D9"/>
<circle cx="157.5" cy="6.5" r="2.5" fill="#D9D9D9"/>
<circle cx="165.5" cy="6.5" r="2.5" fill="#D9D9D9"/>
<circle cx="173.5" cy="6.5" r="2.5" fill="#D9D9D9"/>
<circle cx="181.5" cy="6.5" r="2.5" fill="#D9D9D9"/>
<circle cx="189.5" cy="6.5" r="2.5" fill="#D9D9D9"/>
<circle cx="197.5" cy="6.5" r="2.5" fill="#D9D9D9"/>
<circle cx="205.5" cy="6.5" r="2.5" fill="#D9D9D9"/>
<circle cx="213.5" cy="6.5" r="2.5" fill="#D9D9D9"/>
<circle cx="221.5" cy="6.5" r="2.5" fill="#D9D9D9"/>
</svg>
