<svg width="52" height="52" viewBox="0 0 52 52" fill="none" xmlns="http://www.w3.org/2000/svg">
<circle cx="26" cy="26" r="26" fill="#06F421"/>
<path d="M36.8889 11H15.1111C13.3953 11 12 12.3953 12 14.1111V32.7778C12 34.4936 13.3953 35.8889 15.1111 35.8889H20.6893L26 41.1996L31.3107 35.8889H36.8889C38.6047 35.8889 40 34.4936 40 32.7778V14.1111C40 12.3953 38.6047 11 36.8889 11ZM36.8889 32.7778H30.0227L26 36.8004L21.9773 32.7778H15.1111V14.1111H36.8889V32.7778Z" fill="black"/>
<path d="M30.6668 26.5556C32.385 26.5556 33.7779 25.1627 33.7779 23.4444C33.7779 21.7262 32.385 20.3333 30.6668 20.3333C28.9486 20.3333 27.5557 21.7262 27.5557 23.4444C27.5557 25.1627 28.9486 26.5556 30.6668 26.5556Z" fill="black"/>
<path d="M21.3333 26.5556C23.0515 26.5556 24.4444 25.1627 24.4444 23.4444C24.4444 21.7262 23.0515 20.3333 21.3333 20.3333C19.6151 20.3333 18.2222 21.7262 18.2222 23.4444C18.2222 25.1627 19.6151 26.5556 21.3333 26.5556Z" fill="black"/>
</svg>
