<svg width="170" height="17" viewBox="0 0 170 17" fill="none" xmlns="http://www.w3.org/2000/svg">
<path d="M11.9283 1.93372C11.652 1.93372 11.3828 2.03997 11.1703 2.24538L9.66867 3.74705L13.4228 7.5083L14.9245 6.0208C15.3495 5.58872 15.3495 4.9158 14.9245 4.50497L12.6791 2.24538C12.4666 2.03997 12.1974 1.93372 11.9283 1.93372ZM9.16575 4.24997L3.42825 9.99455L5.24159 10.1929L5.36909 11.815L6.98409 11.9354L7.1895 13.7487L12.927 8.00413M3.01034 10.6533L1.77075 15.392L6.51658 14.1241L6.34659 12.5941L4.71034 12.4737L4.58283 10.8304" fill="#06F421"/>
<path d="M27 1.71423C25.6739 1.71423 24.4021 2.24102 23.4645 3.1787C22.5268 4.11638 22 5.38815 22 6.71423C22 8.41423 22.85 9.90709 24.1429 10.8142V12.4285C24.1429 12.618 24.2181 12.7996 24.3521 12.9336C24.486 13.0676 24.6677 13.1428 24.8571 13.1428H29.1429C29.3323 13.1428 29.514 13.0676 29.6479 12.9336C29.7819 12.7996 29.8571 12.618 29.8571 12.4285V10.8142C31.15 9.90709 32 8.41423 32 6.71423C32 5.38815 31.4732 4.11638 30.5355 3.1787C29.5979 2.24102 28.3261 1.71423 27 1.71423ZM24.8571 15.2857C24.8571 15.4751 24.9324 15.6568 25.0664 15.7907C25.2003 15.9247 25.382 15.9999 25.5714 15.9999H28.4286C28.618 15.9999 28.7997 15.9247 28.9336 15.7907C29.0676 15.6568 29.1429 15.4751 29.1429 15.2857V14.5714H24.8571V15.2857Z" fill="#06F421"/>
<circle cx="47.5" cy="7.5" r="2.5" fill="#D9D9D9"/>
<circle cx="55.5" cy="7.5" r="2.5" fill="#D9D9D9"/>
<circle cx="63.5" cy="7.5" r="2.5" fill="#D9D9D9"/>
<circle cx="71.5" cy="7.5" r="2.5" fill="#D9D9D9"/>
<circle cx="79.5" cy="7.5" r="2.5" fill="#D9D9D9"/>
<circle cx="87.5" cy="7.5" r="2.5" fill="#D9D9D9"/>
<circle cx="95.5" cy="7.5" r="2.5" fill="#D9D9D9"/>
<circle cx="103.5" cy="7.5" r="2.5" fill="#D9D9D9"/>
<circle cx="111.5" cy="7.5" r="2.5" fill="#D9D9D9"/>
<circle cx="119.5" cy="7.5" r="2.5" fill="#D9D9D9"/>
<circle cx="127.5" cy="7.5" r="2.5" fill="#D9D9D9"/>
<circle cx="135.5" cy="7.5" r="2.5" fill="#D9D9D9"/>
<circle cx="143.5" cy="7.5" r="2.5" fill="#D9D9D9"/>
<circle cx="151.5" cy="7.5" r="2.5" fill="#D9D9D9"/>
<circle cx="159.5" cy="7.5" r="2.5" fill="#D9D9D9"/>
<circle cx="167.5" cy="7.5" r="2.5" fill="#D9D9D9"/>
</svg>
