<svg width="480" height="27" viewBox="0 0 480 27" fill="none" xmlns="http://www.w3.org/2000/svg">
<path d="M276 26.04V0.840001H299.19V8.07H285.06V10.53H298.65V16.35H285.06V18.78H299.19V26.04H276Z" fill="white"/>
<path d="M312.647 26.04V0.840001H335.837V8.07H321.707V10.53H335.297V16.35H321.707V18.78H335.837V26.04H312.647Z" fill="white"/>
<path d="M363.019 23.97C360.839 25.91 357.489 26.88 352.969 26.88C348.449 26.88 345.089 25.91 342.889 23.97C340.709 22.03 339.619 19 339.619 14.88V0.840001H348.769V14.67C348.769 17.75 350.169 19.29 352.969 19.29C355.809 19.29 357.229 17.75 357.229 14.67V0.840001H366.319V14.82C366.319 18.96 365.219 22.01 363.019 23.97Z" fill="white"/>
<path d="M392.016 26.88C387.436 26.86 384.106 26.11 382.026 24.63C379.966 23.15 379.006 20.74 379.146 17.4H387.276C387.316 18.18 387.696 18.78 388.416 19.2C389.156 19.6 390.356 19.81 392.016 19.83C393.396 19.85 394.436 19.7 395.136 19.38C395.856 19.06 396.216 18.66 396.216 18.18C396.216 17.96 396.176 17.77 396.096 17.61C396.036 17.43 395.816 17.24 395.436 17.04C395.056 16.82 394.516 16.66 393.816 16.56L390.516 16.05C387.816 15.63 386.156 15.33 385.536 15.15C382.716 14.43 380.926 13.06 380.166 11.04C379.866 10.22 379.716 9.27 379.716 8.19C379.716 5.59 380.756 3.58 382.836 2.16C384.936 0.72 388.026 0 392.106 0C393.666 0 395.056 0.0899999 396.276 0.27C397.516 0.43 398.666 0.73 399.726 1.17C400.806 1.59 401.696 2.15 402.396 2.85C403.096 3.55 403.636 4.46 404.016 5.58C404.396 6.68 404.566 7.96 404.526 9.42H396.426C396.126 7.84 394.616 7.05 391.896 7.05C389.576 7.05 388.416 7.59 388.416 8.67C388.416 9.49 389.056 10 390.336 10.2L392.976 10.62C393.416 10.7 394.066 10.8 394.926 10.92C395.806 11.04 396.516 11.14 397.056 11.22C397.596 11.28 398.266 11.41 399.066 11.61C399.866 11.79 400.516 11.99 401.016 12.21C401.536 12.43 402.086 12.73 402.666 13.11C403.266 13.49 403.726 13.92 404.046 14.4C404.386 14.88 404.666 15.48 404.886 16.2C405.126 16.9 405.246 17.69 405.246 18.57C405.246 21.39 404.156 23.49 401.976 24.87C399.796 26.23 396.476 26.9 392.016 26.88Z" fill="white"/>
<path d="M422.426 26.88C418.046 26.88 414.546 25.66 411.926 23.22C409.326 20.78 408.026 17.52 408.026 13.44C408.026 9.36 409.326 6.1 411.926 3.66C414.546 1.22 418.046 0 422.426 0C426.826 0 430.326 1.22 432.926 3.66C435.546 6.1 436.856 9.36 436.856 13.44C436.856 17.52 435.546 20.78 432.926 23.22C430.326 25.66 426.826 26.88 422.426 26.88ZM422.426 19.05C423.966 19.05 425.246 18.56 426.266 17.58C427.306 16.58 427.826 15.2 427.826 13.44C427.826 11.68 427.306 10.31 426.266 9.33C425.246 8.33 423.966 7.83 422.426 7.83C420.906 7.83 419.626 8.33 418.586 9.33C417.546 10.31 417.026 11.68 417.026 13.44C417.026 15.2 417.546 16.58 418.586 17.58C419.626 18.56 420.906 19.05 422.426 19.05Z" fill="white"/>
<path d="M463.594 23.97C461.414 25.91 458.064 26.88 453.544 26.88C449.024 26.88 445.664 25.91 443.464 23.97C441.284 22.03 440.194 19 440.194 14.88V0.840001H449.344V14.67C449.344 17.75 450.744 19.29 453.544 19.29C456.384 19.29 457.804 17.75 457.804 14.67V0.840001H466.894V14.82C466.894 18.96 465.794 22.01 463.594 23.97Z" fill="white"/>
<path d="M475.116 11.67C473.916 11.67 472.876 11.24 471.996 10.38C471.116 9.5 470.676 8.47 470.676 7.29C470.676 6.09 471.116 5.06 471.996 4.2C472.876 3.32 473.916 2.88 475.116 2.88C476.336 2.88 477.386 3.32 478.266 4.2C479.146 5.06 479.586 6.09 479.586 7.29C479.586 8.47 479.146 9.5 478.266 10.38C477.386 11.24 476.336 11.67 475.116 11.67ZM475.116 24.27C473.916 24.27 472.876 23.84 471.996 22.98C471.116 22.12 470.676 21.09 470.676 19.89C470.676 18.71 471.116 17.69 471.996 16.83C472.876 15.95 473.916 15.51 475.116 15.51C476.336 15.51 477.386 15.95 478.266 16.83C479.146 17.69 479.586 18.71 479.586 19.89C479.586 21.09 479.146 22.12 478.266 22.98C477.386 23.84 476.336 24.27 475.116 24.27Z" fill="white"/>
<path d="M0 10H256V16H6C2.68629 16 0 13.3137 0 10Z" fill="white"/>
</svg>
