<svg width="18" height="17" viewBox="0 0 18 17" fill="none" xmlns="http://www.w3.org/2000/svg">
<mask id="path-1-inside-1_418_187" fill="white">
<path d="M1.15698 5.92751C0.717907 5.78115 0.713701 5.54479 1.16539 5.39422L17.2203 0.0428763C17.6652 -0.105165 17.9201 0.143813 17.7956 0.579525L13.208 16.6336C13.0819 17.0785 12.8253 17.0937 12.6369 16.6714L9.61383 9.86826L14.6607 3.13912L7.93154 8.18597L1.15698 5.92751Z"/>
</mask>
<path d="M1.15698 5.92751C0.717907 5.78115 0.713701 5.54479 1.16539 5.39422L17.2203 0.0428763C17.6652 -0.105165 17.9201 0.143813 17.7956 0.579525L13.208 16.6336C13.0819 17.0785 12.8253 17.0937 12.6369 16.6714L9.61383 9.86826L14.6607 3.13912L7.93154 8.18597L1.15698 5.92751Z" fill="black"/>
<path d="M1.16539 5.39422L0.216756 2.54816L0.216711 2.54817L1.16539 5.39422ZM17.2203 0.0428763L16.2732 -2.80371L16.2716 -2.80319L17.2203 0.0428763ZM17.7956 0.579525L20.6802 1.40381L20.6802 1.40369L17.7956 0.579525ZM13.208 16.6336L10.3235 15.8093L10.3218 15.8152L13.208 16.6336ZM12.6369 16.6714L9.89537 17.8896L9.89726 17.8939L12.6369 16.6714ZM9.61383 9.86826L7.21383 8.06826L6.15717 9.47713L6.87231 11.0865L9.61383 9.86826ZM14.6607 3.13912L17.0607 4.93912L12.8607 0.739121L14.6607 3.13912ZM7.93154 8.18597L6.98275 11.032L8.474 11.5291L9.73154 10.586L7.93154 8.18597ZM2.10567 3.08146C2.18267 3.10713 2.47619 3.20907 2.80992 3.48228C3.13023 3.74451 3.8337 4.47185 3.82711 5.67883C3.82054 6.88057 3.11461 7.59663 2.80116 7.85078C2.47172 8.11788 2.18459 8.21677 2.11408 8.24027L0.216711 2.54817C-0.0796482 2.64696 -0.535642 2.83186 -0.977602 3.1902C-1.40358 3.53558 -2.16571 4.34811 -2.1728 5.64605C-2.17993 6.94924 -1.42131 7.77253 -0.990834 8.12494C-0.546937 8.48834 -0.0882429 8.67471 0.2083 8.77356L2.10567 3.08146ZM2.11403 8.24029L18.1689 2.88894L16.2716 -2.80319L0.216756 2.54816L2.11403 8.24029ZM18.1673 2.88946C17.8622 2.99099 16.6921 3.24844 15.6595 2.27131C14.6204 1.28798 14.8147 0.0925706 14.911 -0.244638L20.6802 1.40369C20.901 0.630768 21.0302 -0.906989 19.7835 -2.08672C18.5434 -3.26026 17.0233 -3.05328 16.2732 -2.80371L18.1673 2.88946ZM14.9111 -0.244758L10.3235 15.8093L16.0926 17.4578L20.6802 1.40381L14.9111 -0.244758ZM10.3218 15.8152C10.3509 15.7125 10.449 15.3975 10.726 15.0422C11.0094 14.6786 11.6728 14.0531 12.7541 13.9838C13.8277 13.9151 14.5584 14.4437 14.878 14.7541C15.1944 15.0615 15.3335 15.3525 15.3765 15.4489L9.89726 17.8939C10.0345 18.2014 10.2763 18.6489 10.6978 19.0583C11.1224 19.4707 11.9605 20.0469 13.1375 19.9716C14.3222 19.8957 15.0852 19.2093 15.4582 18.7309C15.8246 18.2608 16.0021 17.7771 16.0942 17.452L10.3218 15.8152ZM15.3784 15.4532L12.3553 8.65003L6.87231 11.0865L9.89537 17.8896L15.3784 15.4532ZM12.0138 11.6683L17.0607 4.93912L12.2607 1.33912L7.21383 8.06826L12.0138 11.6683ZM12.8607 0.739121L6.13154 5.78597L9.73154 10.586L16.4607 5.53912L12.8607 0.739121ZM8.88033 5.33996L2.10577 3.08149L0.208194 8.77352L6.98275 11.032L8.88033 5.33996Z" fill="black" mask="url(#path-1-inside-1_418_187)"/>
</svg>
