<svg width="251" height="15" viewBox="0 0 251 15" fill="none" xmlns="http://www.w3.org/2000/svg">
<path d="M8.35599 11.4C7.88474 9.69375 6.237 8.475 4.339 8.6765C2.532 8.86825 1.09549 10.3925 1.00449 12.206C0.981744 12.6837 1.04674 13.142 1.18649 13.5677C1.27099 13.8277 1.52449 14 1.80074 14H11.4799C13.1205 14 14.3509 12.4988 14.0292 10.8901L12.0512 1H8.15125L6.85125 3.275L9.63649 5.26725L10.4262 4.25M9.63324 5.26725L8.15125 10.75" stroke="#06F421" stroke-width="1.3" stroke-miterlimit="2" stroke-linecap="round" stroke-linejoin="round"/>
<path d="M33.8266 6.10553C33.9694 5.89077 34.1315 5.6947 34.3196 5.52527C34.7049 5.1779 35.1843 4.95237 35.7992 4.88323C35.8887 4.87274 35.9792 4.89189 36.0567 4.93774C36.1343 4.9836 36.1947 5.05363 36.2287 5.1371C36.2614 5.21506 36.2708 5.30084 36.2557 5.38402C36.2406 5.4672 36.2017 5.54422 36.1437 5.60573C35.9012 5.86413 35.6858 6.1724 35.5328 6.47273C35.4994 6.53847 35.4694 6.60307 35.4433 6.66483C35.5444 6.83733 35.5972 7.03384 35.5963 7.23377C35.6033 7.39243 35.5907 7.55134 35.5589 7.70693C35.5096 7.94493 35.3379 8.4606 34.7656 8.57677C34.561 8.61813 34.3196 8.64137 34.1026 8.6629L33.9501 8.67763C33.677 8.70597 33.4316 8.73997 33.2174 8.80343C32.8944 8.89977 32.6564 9.09583 32.3771 9.69537L31.977 10.5533L31.3758 9.74863C31.1831 9.4908 30.8794 9.08563 30.6085 8.66403C30.4632 8.44094 30.3308 8.20975 30.2118 7.97157C30.103 7.74887 30.0022 7.49613 29.9682 7.25077L29.967 7.2468V7.24283C29.9484 7.10083 29.9603 6.95648 30.0019 6.81945C30.0436 6.68241 30.114 6.55583 30.2084 6.44817C30.3029 6.34052 30.4192 6.25427 30.5497 6.19518C30.6802 6.13609 30.8217 6.10553 30.9649 6.10553H33.8266V6.10553Z" fill="#06F421"/>
<path d="M35.8097 1C36.2287 0.999703 36.6437 1.08202 37.0309 1.24224C37.4181 1.40247 37.7699 1.63745 38.0662 1.93376C38.3625 2.23007 38.5975 2.58189 38.7578 2.96909C38.918 3.3563 39.0003 3.77129 39 4.19033V8.57633C39.0001 9.06899 38.9031 9.55683 38.7146 10.012C38.5261 10.4672 38.2498 10.8807 37.9014 11.2291C37.5531 11.5775 37.1395 11.8538 36.6843 12.0423C36.2292 12.2308 35.7413 12.3277 35.2487 12.3277H34.4667C34.468 12.6258 34.4098 12.9213 34.2955 13.1966C34.1811 13.472 34.013 13.7218 33.8008 13.9313C33.3756 14.3553 32.7996 14.5933 32.1991 14.593C31.5986 14.5927 31.0228 14.3541 30.598 13.9296L29.1927 12.5243C29.0657 12.3982 28.894 12.3275 28.715 12.3277C27.7175 12.3276 26.749 11.9924 25.9649 11.3758C25.1808 10.7592 24.6266 9.89702 24.3913 8.92767H23.6824C23.3084 8.92767 22.8698 8.85967 22.5219 8.5684C22.153 8.259 22 7.79887 22 7.2679V3.21283C22 2.58723 22.1541 2.00583 22.5723 1.58537C22.9911 1.16377 23.5776 1 24.2315 1H35.8097ZM37.8667 4.19033C37.867 3.92012 37.814 3.6525 37.7107 3.4028C37.6074 3.1531 37.4559 2.92622 37.2648 2.73515C37.0738 2.54408 36.8469 2.39257 36.5972 2.28931C36.3475 2.18604 36.0799 2.13304 35.8097 2.13333H24.231C23.7527 2.13333 23.5073 2.25233 23.3764 2.38437C23.2455 2.5164 23.1333 2.75837 23.1333 3.2134V7.26847C23.1333 7.58807 23.2195 7.6742 23.2489 7.69913C23.2994 7.74107 23.4184 7.79433 23.6824 7.79433H24.7087C25.06 7.79433 25.3887 8.04253 25.4448 8.42277C25.5735 9.19714 25.9728 9.90073 26.5716 10.4083C27.1705 10.9158 27.93 11.1944 28.715 11.1943C29.1927 11.1943 29.6545 11.3836 29.994 11.723L31.3993 13.1284C31.6118 13.3405 31.8998 13.4596 32.2 13.4596C32.5002 13.4596 32.7882 13.3405 33.0007 13.1284L33.003 13.1261C33.3203 12.8127 33.411 12.3543 33.2687 11.9474L33.0058 11.1943H35.2487C35.5925 11.1945 35.933 11.1269 36.2507 10.9954C36.5684 10.8638 36.8571 10.671 37.1002 10.4279C37.3433 10.1847 37.5362 9.89607 37.6677 9.57837C37.7992 9.26068 37.8668 8.92018 37.8667 8.57633V4.19033Z" fill="#06F421"/>
<circle cx="56.5" cy="6.5" r="2.5" fill="#D9D9D9"/>
<circle cx="64.5" cy="6.5" r="2.5" fill="#D9D9D9"/>
<circle cx="72.5" cy="6.5" r="2.5" fill="#D9D9D9"/>
<circle cx="80.5" cy="6.5" r="2.5" fill="#D9D9D9"/>
<circle cx="88.5" cy="6.5" r="2.5" fill="#D9D9D9"/>
<circle cx="96.5" cy="6.5" r="2.5" fill="#D9D9D9"/>
<circle cx="104.5" cy="6.5" r="2.5" fill="#D9D9D9"/>
<circle cx="112.5" cy="6.5" r="2.5" fill="#D9D9D9"/>
<circle cx="120.5" cy="6.5" r="2.5" fill="#D9D9D9"/>
<circle cx="128.5" cy="6.5" r="2.5" fill="#D9D9D9"/>
<circle cx="136.5" cy="6.5" r="2.5" fill="#D9D9D9"/>
<circle cx="144.5" cy="6.5" r="2.5" fill="#D9D9D9"/>
<circle cx="152.5" cy="6.5" r="2.5" fill="#D9D9D9"/>
<circle cx="160.5" cy="6.5" r="2.5" fill="#D9D9D9"/>
<circle cx="168.5" cy="6.5" r="2.5" fill="#D9D9D9"/>
<circle cx="176.5" cy="6.5" r="2.5" fill="#D9D9D9"/>
<circle cx="184.5" cy="6.5" r="2.5" fill="#D9D9D9"/>
<circle cx="192.5" cy="6.5" r="2.5" fill="#D9D9D9"/>
<circle cx="200.5" cy="6.5" r="2.5" fill="#D9D9D9"/>
<circle cx="208.5" cy="6.5" r="2.5" fill="#D9D9D9"/>
<circle cx="216.5" cy="6.5" r="2.5" fill="#D9D9D9"/>
<circle cx="224.5" cy="6.5" r="2.5" fill="#D9D9D9"/>
<circle cx="232.5" cy="6.5" r="2.5" fill="#D9D9D9"/>
<circle cx="240.5" cy="6.5" r="2.5" fill="#D9D9D9"/>
<circle cx="248.5" cy="6.5" r="2.5" fill="#D9D9D9"/>
</svg>
