<svg width="167" height="16" viewBox="0 0 167 16" fill="none" xmlns="http://www.w3.org/2000/svg">
<mask id="mask0_369_189" style="mask-type:alpha" maskUnits="userSpaceOnUse" x="0" y="0" width="16" height="16">
<path d="M6.34517 14.6666C6.01851 13.6016 5.52584 12.8073 4.86684 12.2843C3.87851 11.5 2.30817 11.9876 1.72817 11.1783C1.14817 10.369 2.13451 8.88098 2.48051 8.00298C2.82684 7.12498 1.15384 6.81465 1.34917 6.56531C1.47917 6.39898 2.32484 5.91965 3.88551 5.12665C4.32884 2.59798 5.96651 1.33331 8.79918 1.33331C13.0478 1.33331 14.6665 4.93531 14.6665 7.22665C14.6665 9.51731 12.7065 11.9853 9.91451 12.5176C9.66484 12.881 10.0248 13.5976 10.9945 14.6666" stroke="white" stroke-width="1.55567" stroke-linecap="round" stroke-linejoin="round"/>
<path fill-rule="evenodd" clip-rule="evenodd" d="M6.50034 4.83343C6.28234 5.6781 6.34701 6.27143 6.69468 6.6131C7.04201 6.95443 7.63401 7.1781 8.47068 7.2831C8.28068 8.37277 8.51234 8.88377 9.16501 8.81643C9.81768 8.74943 10.21 8.4781 10.3417 8.0031C11.3617 8.28977 11.9147 8.04977 12.0003 7.2831C12.1287 6.1331 11.5087 5.2161 11.2543 5.2161C11.0003 5.2161 10.3417 5.1851 10.3417 4.83343C10.3417 4.48177 9.57234 4.28343 8.87801 4.28343C8.18368 4.28343 8.60134 3.8151 7.64801 4.0001C7.01234 4.12343 6.62968 4.4011 6.50034 4.83343Z" fill="white" stroke="white" stroke-width="1.33333" stroke-linejoin="round"/>
<path d="M10.1667 8.50006C9.82769 8.71039 9.36269 9.06006 9.16669 9.33339C8.67703 10.0167 8.28003 10.4327 8.19336 10.8694" stroke="white" stroke-width="1.33333" stroke-linecap="round"/>
</mask>
<g mask="url(#mask0_369_189)">
<path d="M0 0H16V16H0V0Z" fill="#06F421"/>
</g>
<path d="M23.9093 11.9163C24.2117 12.8487 25.1308 13.4437 26.1115 13.4437H26.15C26.24 13.8828 26.4788 14.2774 26.8261 14.5608C27.1734 14.8442 27.6079 14.999 28.0561 14.9991C28.376 14.9991 28.6749 14.9186 28.9395 14.78C29.0499 14.7194 29.1418 14.63 29.2053 14.5212C29.2688 14.4125 29.3015 14.2885 29.3 14.1626V1.71798C29.3014 1.55761 29.2476 1.40164 29.1475 1.27632C29.0474 1.151 28.9072 1.06397 28.7505 1.02988C28.3993 0.961667 28.0354 1.01112 27.7152 1.17058C27.1944 1.41978 26.8892 1.97628 26.8892 2.55518V2.59368C26.4994 2.51413 26.0947 2.55602 25.7295 2.71371C25.3643 2.87139 25.0562 3.13728 24.8469 3.47551C24.6375 3.81375 24.5369 4.20805 24.5586 4.60524C24.5804 5.00243 24.7234 5.38341 24.9684 5.69678C24.4197 5.78276 23.9197 6.06202 23.5588 6.4842C23.1978 6.90637 22.9996 7.44364 23 7.99908C23 8.82368 23.4277 9.54678 24.0731 9.96748C23.7721 10.5072 23.6734 11.1897 23.9093 11.9163ZM35.0316 5.69678C35.2766 5.38341 35.4196 5.00243 35.4414 4.60524C35.4631 4.20805 35.3625 3.81375 35.1531 3.47551C34.9438 3.13728 34.6357 2.87139 34.2705 2.71371C33.9053 2.55602 33.5006 2.51413 33.1108 2.59368V2.55518C33.1108 1.97698 32.8049 1.41978 32.2841 1.17058C31.9641 1.01107 31.6005 0.961614 31.2495 1.02988C31.0929 1.06409 30.9527 1.15116 30.8527 1.27645C30.7526 1.40174 30.6987 1.55764 30.7 1.71798V14.1619C30.7 14.4174 30.8344 14.6603 31.0612 14.7793C31.3258 14.9186 31.624 14.9991 31.9439 14.9991C32.3922 14.999 32.8268 14.8441 33.1741 14.5605C33.5214 14.277 33.7602 13.8822 33.85 13.443H33.8892C34.8692 13.443 35.789 12.848 36.0914 11.9156C36.3273 11.189 36.2286 10.5065 35.9276 9.96678C36.2564 9.75436 36.5267 9.46302 36.7141 9.11932C36.9014 8.77562 36.9997 8.3905 37 7.99908C37.0003 7.44364 36.8022 6.90637 36.4412 6.4842C36.0803 6.06202 35.5803 5.78276 35.0316 5.69678Z" fill="#06F421"/>
<circle cx="52.5" cy="7.5" r="2.5" fill="#D9D9D9"/>
<circle cx="60.5" cy="7.5" r="2.5" fill="#D9D9D9"/>
<circle cx="68.5" cy="7.5" r="2.5" fill="#D9D9D9"/>
<circle cx="76.5" cy="7.5" r="2.5" fill="#D9D9D9"/>
<circle cx="84.5" cy="7.5" r="2.5" fill="#D9D9D9"/>
<circle cx="92.5" cy="7.5" r="2.5" fill="#D9D9D9"/>
<circle cx="100.5" cy="7.5" r="2.5" fill="#D9D9D9"/>
<circle cx="108.5" cy="7.5" r="2.5" fill="#D9D9D9"/>
<circle cx="116.5" cy="7.5" r="2.5" fill="#D9D9D9"/>
<circle cx="124.5" cy="7.5" r="2.5" fill="#D9D9D9"/>
<circle cx="132.5" cy="7.5" r="2.5" fill="#D9D9D9"/>
<circle cx="140.5" cy="7.5" r="2.5" fill="#D9D9D9"/>
<circle cx="148.5" cy="7.5" r="2.5" fill="#D9D9D9"/>
<circle cx="156.5" cy="7.5" r="2.5" fill="#D9D9D9"/>
<circle cx="164.5" cy="7.5" r="2.5" fill="#D9D9D9"/>
</svg>
