<svg width="823" height="168" viewBox="0 0 823 168" fill="none" xmlns="http://www.w3.org/2000/svg">
<path d="M120.653 40.6454V66.6432C120.653 66.8696 120.593 67.092 120.48 67.2881C120.366 67.4841 120.204 67.6469 120.007 67.7602C119.811 67.8734 119.589 67.9331 119.363 67.9333C119.136 67.9334 118.914 67.874 118.718 67.761L93.9769 53.4748L93.7702 53.345V53.1767L93.626 53.2609L60.8083 34.3256C60.6125 34.2123 60.3903 34.1526 60.1641 34.1526C59.9379 34.1526 59.7156 34.2123 59.5198 34.3256L35.9763 47.9171C35.7801 48.0304 35.5575 48.09 35.3309 48.09C35.1043 48.09 34.8817 48.0304 34.6854 47.9171L10.2453 33.7991L53.4308 8.85656C55.4716 7.6789 57.7863 7.05894 60.1424 7.05894C62.4986 7.05894 64.8133 7.6789 66.8541 8.85656L74.2988 13.1451L85.2364 19.4648L93.7702 24.3784L120.006 39.53C120.202 39.6429 120.365 39.8054 120.479 40.0011C120.592 40.1969 120.652 40.4191 120.653 40.6454Z" fill="#06F421"/>
<path d="M119.362 67.9653C119.131 67.9644 118.903 67.903 118.703 67.7875L117.242 66.9413L93.7365 53.3714V53.2392L93.6236 53.3065H93.6091L60.7915 34.3544C60.5998 34.2446 60.3826 34.1868 60.1617 34.1868C59.9407 34.1868 59.7236 34.2446 59.5319 34.3544L35.9883 47.9459C35.7877 48.0617 35.5601 48.1227 35.3285 48.1227C35.0968 48.1227 34.8692 48.0617 34.6686 47.9459L10.1852 33.7991L53.4356 8.82772C55.4832 7.6495 57.8041 7.02939 60.1665 7.02939C62.5288 7.02939 64.8498 7.6495 66.8973 8.82772L97.6164 26.5611L120.032 39.5035C120.232 39.6198 120.398 39.7864 120.514 39.9867C120.629 40.187 120.691 40.4141 120.691 40.6454V66.6432C120.69 66.9931 120.551 67.3283 120.303 67.5759C120.056 67.8235 119.721 67.9634 119.371 67.9653H119.362ZM93.7966 53.345L93.9889 53.4532L118.73 67.7394C118.921 67.8505 119.138 67.9091 119.36 67.9095C119.581 67.9099 119.798 67.852 119.99 67.7416C120.182 67.6312 120.341 67.4722 120.452 67.2807C120.563 67.0891 120.621 66.8717 120.621 66.6504V40.6454C120.621 40.4243 120.562 40.2073 120.452 40.0158C120.341 39.8244 120.183 39.6652 119.992 39.554L66.8468 8.87339C64.8102 7.70173 62.5017 7.08509 60.1521 7.08509C57.8024 7.08509 55.4939 7.70173 53.4573 8.87339L10.3054 33.7991L34.6975 47.8906C34.8896 48.0005 35.1071 48.0582 35.3285 48.0582C35.5498 48.0582 35.7673 48.0005 35.9595 47.8906L59.503 34.2991C59.7036 34.1833 59.9312 34.1223 60.1629 34.1223C60.3945 34.1223 60.6221 34.1833 60.8227 34.2991L93.6236 53.2368L93.7966 53.1359V53.345Z" fill="#06F421"/>
<path d="M119.362 67.9653C119.131 67.9644 118.903 67.903 118.703 67.7875L117.242 66.9413L93.7509 53.3811C93.7468 53.3779 93.7433 53.374 93.7409 53.3694C93.7384 53.3648 93.7369 53.3598 93.7365 53.3546V53.2392L93.638 53.2969C93.6335 53.2992 93.6286 53.3004 93.6236 53.3004C93.6185 53.3004 93.6136 53.2992 93.6091 53.2969L60.7915 34.3544C60.5998 34.2446 60.3826 34.1868 60.1617 34.1868C59.9407 34.1868 59.7236 34.2446 59.5319 34.3544L35.9883 47.9459C35.7877 48.0617 35.5601 48.1227 35.3285 48.1227C35.0968 48.1227 34.8692 48.0617 34.6686 47.9459L10.2285 33.8232C10.2241 33.8209 10.2204 33.8175 10.2178 33.8132C10.2153 33.809 10.214 33.8041 10.214 33.7991C10.2135 33.7938 10.2146 33.7884 10.2171 33.7836C10.2197 33.7789 10.2237 33.7751 10.2285 33.7727L53.4356 8.82531C55.4832 7.64709 57.8041 7.02698 60.1665 7.02698C62.5288 7.02698 64.8498 7.64709 66.8973 8.82531L97.6164 26.5611L120.032 39.5035C120.232 39.6198 120.398 39.7864 120.514 39.9867C120.629 40.187 120.691 40.4141 120.691 40.6454V66.6432C120.69 66.9931 120.551 67.3283 120.303 67.5759C120.056 67.8235 119.721 67.9634 119.371 67.9653H119.362ZM93.7966 53.345L93.9889 53.4532L118.73 67.7394C118.921 67.8505 119.138 67.9091 119.36 67.9095C119.581 67.9099 119.798 67.852 119.99 67.7416C120.182 67.6312 120.341 67.4722 120.452 67.2807C120.563 67.0891 120.621 66.8717 120.621 66.6504V40.6454C120.621 40.4243 120.562 40.2073 120.452 40.0158C120.341 39.8244 120.183 39.6652 119.992 39.554L66.8468 8.87339C64.8102 7.70173 62.5017 7.08509 60.1521 7.08509C57.8024 7.08509 55.4939 7.70173 53.4573 8.87339L10.3054 33.7991L34.6975 47.8906C34.8896 48.0005 35.1071 48.0582 35.3285 48.0582C35.5498 48.0582 35.7673 48.0005 35.9595 47.8906L59.503 34.2991C59.7036 34.1833 59.9312 34.1223 60.1629 34.1223C60.3945 34.1223 60.6221 34.1833 60.8227 34.2991L93.6236 53.2368L93.7509 53.1599C93.7558 53.1576 93.7612 53.1563 93.7666 53.1563C93.772 53.1563 93.7773 53.1576 93.7822 53.1599C93.7865 53.1629 93.79 53.1668 93.7925 53.1714C93.795 53.176 93.7964 53.1811 93.7966 53.1863V53.345Z" fill="#06F421"/>
<path d="M119.362 67.9942C119.125 67.9937 118.893 67.9307 118.689 67.8115L93.7365 53.4075C93.7278 53.4017 93.7206 53.3938 93.7156 53.3846C93.7106 53.3754 93.7079 53.3651 93.7077 53.3546V53.2921L93.6524 53.3234C93.6431 53.328 93.6328 53.3304 93.6223 53.3304C93.6119 53.3304 93.6016 53.328 93.5923 53.3234L60.7771 34.3761C60.5898 34.2685 60.3776 34.2119 60.1617 34.2119C59.9457 34.2119 59.7335 34.2685 59.5463 34.3761L36.0028 47.9675C35.7977 48.0857 35.5652 48.1478 35.3285 48.1478C35.0918 48.1478 34.8593 48.0857 34.6542 47.9675L10.214 33.8496C10.2048 33.8449 10.1972 33.8377 10.1921 33.8287C10.1869 33.8197 10.1845 33.8094 10.1852 33.7991C10.1847 33.7885 10.1871 33.778 10.1922 33.7686C10.1973 33.7593 10.2048 33.7515 10.214 33.7462L53.4212 8.80128C55.4716 7.62113 57.7959 7 60.1617 7C62.5274 7 64.8517 7.62113 66.9021 8.80128L120.028 39.4771C120.233 39.5957 120.403 39.766 120.521 39.971C120.64 40.176 120.703 40.4085 120.703 40.6454V66.6432C120.702 67.0011 120.559 67.344 120.306 67.5971C120.053 67.8502 119.71 67.9929 119.352 67.9942H119.362ZM118.641 67.7153L118.72 67.761C119.003 67.9243 119.337 67.9741 119.655 67.9004C119.336 67.9753 119 67.9245 118.718 67.7586L118.641 67.7153ZM93.8279 53.3186L94.0034 53.4195L118.746 67.7057C118.933 67.8144 119.145 67.8719 119.361 67.8724C119.577 67.8729 119.79 67.8164 119.977 67.7087C120.164 67.6009 120.32 67.4456 120.428 67.2586C120.536 67.0715 120.593 66.8593 120.593 66.6432V40.6454C120.592 40.4295 120.535 40.2176 120.427 40.0307C120.319 39.8438 120.164 39.6886 119.977 39.5804L66.8468 8.90465C64.8146 7.73528 62.5111 7.11984 60.1665 7.11984C57.8219 7.11984 55.5183 7.73528 53.4861 8.90465L10.3559 33.7991L34.7143 47.8642C34.9011 47.9718 35.1129 48.0284 35.3285 48.0284C35.5441 48.0284 35.7559 47.9718 35.9427 47.8642L59.4862 34.2727C59.6917 34.1546 59.9246 34.0924 60.1617 34.0924C60.3987 34.0924 60.6316 34.1546 60.8372 34.2727L93.6236 53.2008L93.7365 53.1359C93.7455 53.1301 93.7559 53.127 93.7666 53.127C93.7772 53.127 93.7877 53.1301 93.7966 53.1359C93.8061 53.1404 93.8141 53.1476 93.8196 53.1566C93.8251 53.1655 93.828 53.1758 93.8279 53.1863V53.3186ZM60.8059 34.3256L93.6236 53.2705H93.6091L60.8059 34.3256ZM59.8155 34.203C59.7111 34.2315 59.6109 34.2735 59.5174 34.328C59.6108 34.2727 59.711 34.2299 59.8155 34.2006V34.203ZM60.1617 7.06088C62.5175 7.05922 64.8322 7.6777 66.8733 8.85416C64.8314 7.67978 62.5172 7.06172 60.1617 7.06172C57.8062 7.06172 55.4919 7.67978 53.4501 8.85416L51.4621 10.0032L53.4525 8.85176C55.4929 7.67602 57.8067 7.05757 60.1617 7.05847V7.06088Z" fill="#06F421"/>
<path d="M92.9841 92.4728V116.783C92.9846 117.135 92.8923 117.48 92.7168 117.785C92.5412 118.089 92.2884 118.342 91.984 118.518C91.6796 118.694 91.3342 118.786 90.9826 118.786C90.6311 118.785 90.2859 118.693 89.9817 118.516L67.1113 105.29L60.3948 101.422L23.7526 80.2395L2.00483 67.6528C1.41901 67.3121 0.933009 66.8234 0.595499 66.2357C0.257988 65.648 0.0808194 64.982 0.0817342 64.3042V42.0684C0.0810619 41.3908 0.258335 40.7248 0.595821 40.1372C0.933308 39.5495 1.41918 39.0608 2.00483 38.7199L2.04089 38.7006L27.0604 53.1743L27.0315 53.1888L80.5056 84.1145L91.9841 90.7492C92.2869 90.924 92.5386 91.1752 92.714 91.4776C92.8895 91.78 92.9826 92.1232 92.9841 92.4728Z" fill="#06F421"/>
<path d="M90.9817 118.819C90.6243 118.819 90.2734 118.723 89.9649 118.543L1.98319 67.6793C1.39321 67.337 0.903065 66.8462 0.561478 66.2559C0.219891 65.6655 0.0387532 64.9959 0.0360566 64.3139V42.0781C0.0387423 41.3965 0.219361 40.7275 0.560033 40.1372C0.900704 39.547 1.38962 39.0559 1.97838 38.7126L2.03367 38.6814H2.0481L27.1109 53.1743L27.082 53.1887L27.3825 53.3642L91.9985 90.7156C92.307 90.8942 92.5631 91.1508 92.7411 91.4597C92.9192 91.7685 93.0129 92.1187 93.013 92.4752V116.783C93.0117 117.322 92.7974 117.838 92.4169 118.22C92.0364 118.601 91.5205 118.817 90.9817 118.819ZM1.99762 38.7511C1.41804 39.0896 0.93714 39.574 0.602721 40.1559C0.268302 40.7379 0.0920021 41.3972 0.0913409 42.0684V64.3042C0.0928748 64.9779 0.27132 65.6394 0.608817 66.2224C0.946315 66.8054 1.43103 67.2896 2.01444 67.6264L89.9961 118.49C90.2956 118.664 90.6357 118.755 90.9819 118.756C91.3282 118.756 91.6684 118.665 91.9683 118.492C92.2682 118.319 92.5172 118.07 92.69 117.77C92.8629 117.47 92.9535 117.129 92.9529 116.783V92.4752C92.9523 92.1293 92.8612 91.7896 92.6887 91.4898C92.5163 91.19 92.2684 90.9405 91.9697 90.766L26.9594 53.1887L26.9883 53.1719L2.02886 38.7343L1.99762 38.7511Z" fill="#06F421"/>
<path d="M90.9817 118.819C90.6243 118.819 90.2734 118.723 89.9649 118.543L1.98319 67.6793C1.39321 67.337 0.903065 66.8462 0.561478 66.2559C0.219891 65.6655 0.0387532 64.9959 0.0360566 64.3139V42.0781C0.0385083 41.3962 0.219283 40.7269 0.560436 40.1365C0.901589 39.5461 1.39125 39.0552 1.98079 38.7126L2.01204 38.6958C2.01649 38.6935 2.02144 38.6923 2.02646 38.6923C2.03148 38.6923 2.03643 38.6935 2.04088 38.6958L27.0628 53.1479C27.0678 53.1502 27.0721 53.1539 27.0751 53.1586C27.0781 53.1633 27.0796 53.1688 27.0796 53.1743L92.0033 90.7036C92.3116 90.8818 92.5676 91.138 92.7457 91.4464C92.9237 91.7549 93.0176 92.1047 93.0178 92.4608V116.783C93.0165 117.322 92.8022 117.838 92.4217 118.22C92.0412 118.601 91.5253 118.817 90.9865 118.819L90.9817 118.819ZM2.00001 38.7511C1.41999 39.0893 0.938623 39.5735 0.60377 40.1555C0.268918 40.7375 0.0922474 41.397 0.0913409 42.0684V64.3042C0.0928748 64.9779 0.27132 65.6394 0.608817 66.2224C0.946315 66.8054 1.43103 67.2896 2.01444 67.6264L89.9961 118.49C90.2956 118.664 90.6357 118.755 90.9819 118.756C91.3282 118.756 91.6684 118.665 91.9683 118.492C92.2682 118.319 92.5172 118.07 92.69 117.77C92.8629 117.47 92.9535 117.129 92.9529 116.783V92.4728C92.9521 92.1273 92.8609 91.788 92.6885 91.4886C92.516 91.1892 92.2682 90.9401 91.9697 90.766L27.0051 53.2152C27.0006 53.2124 26.997 53.2085 26.9945 53.2038C26.992 53.1992 26.9906 53.194 26.9907 53.1888C26.9892 53.1849 26.9892 53.1806 26.9907 53.1767L2.02886 38.7343L2.00723 38.7343L2.00001 38.7511Z" fill="#06F421"/>
<path d="M90.9817 118.848C90.6195 118.847 90.2639 118.751 89.9504 118.569L1.96876 67.7033C1.37329 67.3576 0.878834 66.8618 0.534665 66.2654C0.190495 65.669 0.00863602 64.9928 0.00721132 64.3042V42.0684C0.00950956 41.3828 0.190806 40.7096 0.533161 40.1156C0.875516 39.5215 1.36706 39.0271 1.95915 38.6814H1.97117L2.00001 38.6646C2.00915 38.6593 2.01951 38.6565 2.03006 38.6565C2.04061 38.6565 2.05098 38.6593 2.06011 38.6646L27.0796 53.1383C27.0884 53.1434 27.0958 53.1507 27.1008 53.1596C27.1059 53.1685 27.1085 53.1785 27.1084 53.1888L27.3969 53.3546L92.013 90.706C92.326 90.887 92.586 91.147 92.7669 91.46C92.9479 91.773 93.0435 92.1281 93.0442 92.4896V116.783C93.0469 117.146 92.9528 117.502 92.7715 117.816C92.5902 118.13 92.3283 118.39 92.013 118.569C91.6995 118.751 91.3439 118.847 90.9817 118.848ZM2.01204 38.7775C1.43738 39.1138 0.960532 39.5943 0.628705 40.1715C0.296878 40.7488 0.121589 41.4026 0.120194 42.0684V64.3042C0.121492 64.9718 0.297734 65.6275 0.631361 66.2057C0.964988 66.784 1.44434 67.2647 2.02165 67.6L90.0105 118.456C90.3058 118.627 90.6408 118.716 90.9818 118.716C91.3228 118.716 91.6578 118.627 91.9531 118.456C92.2484 118.286 92.4936 118.04 92.664 117.745C92.8345 117.45 92.9241 117.115 92.924 116.774V92.4728C92.9244 92.1328 92.8358 91.7987 92.6672 91.5035C92.4985 91.2083 92.2555 90.9624 91.9625 90.7901L26.9907 53.2416C26.9818 53.2363 26.9744 53.229 26.9689 53.2202C26.9635 53.2114 26.9602 53.2014 26.9594 53.1912L2.02886 38.7679L2.01204 38.7775ZM2.02886 38.7102H2.04329L27.0435 53.1671L27.0315 53.1912L27.07 53.2128L27.0484 53.2008L27.0604 53.1767L2.02886 38.7102ZM1.9928 38.7295C1.40966 39.0714 0.925656 39.5594 0.588445 40.1453C0.251235 40.7312 0.0724524 41.3948 0.069707 42.0709C0.0728103 41.3956 0.251786 40.7327 0.589003 40.1477C0.926219 39.5626 1.41004 39.0755 1.9928 38.7343V38.7295Z" fill="#06F421"/>
<path d="M120.653 109.682V132.889C120.651 133.23 120.56 133.565 120.39 133.86C120.219 134.155 119.974 134.4 119.679 134.572C119.38 134.746 119.041 134.838 118.695 134.838C118.349 134.838 118.009 134.746 117.71 134.572L99.4409 124.019C99.1428 123.847 98.8952 123.6 98.723 123.302C98.5508 123.004 98.4602 122.666 98.4601 122.322V98.057C98.4599 97.7129 98.5504 97.3748 98.7223 97.0767C98.8943 96.7786 99.1418 96.5312 99.4398 96.3591C99.7378 96.1871 100.076 96.0966 100.42 96.0967C100.764 96.0968 101.102 96.1876 101.4 96.3599L107.294 99.7397L118.727 106.338C119.313 106.676 119.799 107.163 120.136 107.749C120.474 108.334 120.651 108.999 120.65 109.675L120.653 109.682Z" fill="#06F421"/>
<path d="M118.691 134.879C118.342 134.88 117.998 134.788 117.696 134.613L99.4265 124.06C99.125 123.884 98.8748 123.632 98.7006 123.33C98.5265 123.028 98.4344 122.685 98.4337 122.336V98.057C98.4337 97.7076 98.5257 97.3644 98.7004 97.0618C98.8751 96.7593 99.1264 96.508 99.429 96.3334C99.7315 96.1587 100.075 96.0667 100.424 96.0668C100.774 96.0668 101.117 96.1587 101.419 96.3334L118.727 106.334C119.319 106.673 119.81 107.164 120.151 107.755C120.491 108.346 120.67 109.017 120.667 109.699V132.889C120.666 133.417 120.457 133.923 120.083 134.296C119.71 134.669 119.204 134.879 118.677 134.879H118.691ZM100.422 96.1123C99.9128 96.116 99.4259 96.3199 99.066 96.6797C98.7062 97.0395 98.5024 97.5265 98.4986 98.0353V122.336C98.4955 122.677 98.583 123.012 98.7519 123.307C98.9208 123.603 99.1652 123.849 99.4601 124.019L117.73 134.572C118.023 134.741 118.356 134.83 118.695 134.829C119.034 134.829 119.367 134.738 119.66 134.568C119.953 134.397 120.196 134.151 120.363 133.857C120.531 133.562 120.617 133.228 120.614 132.889V109.682C120.615 109.011 120.44 108.352 120.104 107.771C119.769 107.189 119.287 106.707 118.706 106.372L101.39 96.3743C101.098 96.2036 100.765 96.1132 100.426 96.1123H100.422Z" fill="#06F421"/>
<path d="M118.691 134.879C118.342 134.88 117.998 134.788 117.696 134.613L99.4265 124.06C99.125 123.884 98.8748 123.632 98.7006 123.33C98.5265 123.028 98.4344 122.685 98.4337 122.336V98.057C98.4337 97.7076 98.5257 97.3644 98.7004 97.0618C98.8751 96.7593 99.1264 96.508 99.429 96.3334C99.7315 96.1587 100.075 96.0667 100.424 96.0668C100.774 96.0668 101.117 96.1587 101.419 96.3334L118.727 106.334C119.319 106.673 119.81 107.164 120.151 107.755C120.491 108.346 120.67 109.017 120.667 109.699V132.889C120.666 133.417 120.457 133.923 120.083 134.296C119.71 134.669 119.204 134.879 118.677 134.879H118.691ZM100.422 96.1123C99.9128 96.116 99.4259 96.3199 99.066 96.6797C98.7062 97.0395 98.5024 97.5265 98.4986 98.0353V122.336C98.4955 122.677 98.583 123.012 98.7519 123.307C98.9208 123.603 99.1652 123.849 99.4601 124.019L117.73 134.572C118.023 134.741 118.356 134.83 118.695 134.829C119.034 134.829 119.367 134.738 119.66 134.568C119.953 134.397 120.196 134.151 120.363 133.857C120.531 133.562 120.617 133.228 120.614 132.889V109.682C120.615 109.011 120.44 108.352 120.104 107.771C119.769 107.189 119.287 106.707 118.706 106.372L101.39 96.3743C101.098 96.2028 100.765 96.1124 100.426 96.1123H100.422Z" fill="#06F421"/>
<path d="M118.691 134.908C118.337 134.908 117.989 134.815 117.681 134.639L99.4121 124.084C99.1054 123.906 98.8508 123.652 98.6736 123.345C98.4964 123.038 98.4029 122.69 98.4024 122.336V98.057C98.4027 97.7024 98.4962 97.354 98.6737 97.047C98.8511 96.7399 99.1062 96.4849 99.4133 96.3076C99.7204 96.1303 100.069 96.0369 100.423 96.0368C100.778 96.0367 101.126 96.1299 101.434 96.307L118.77 106.295C119.365 106.638 119.859 107.132 120.202 107.726C120.545 108.321 120.726 108.996 120.725 109.682V132.889C120.725 133.155 120.673 133.417 120.571 133.663C120.47 133.908 120.321 134.131 120.133 134.318C119.945 134.506 119.722 134.655 119.477 134.756C119.232 134.857 118.969 134.909 118.703 134.908H118.691ZM100.426 96.1339C100.089 96.1338 99.7573 96.2225 99.4649 96.3911C99.1727 96.5553 98.9296 96.7944 98.7606 97.0839C98.5915 97.3733 98.5028 97.7026 98.5034 98.0378V122.336C98.5057 122.67 98.5957 122.998 98.7644 123.287C98.9331 123.575 99.1747 123.814 99.4649 123.98L117.734 134.533C118.023 134.701 118.351 134.789 118.684 134.789C119.018 134.789 119.346 134.702 119.635 134.535C119.924 134.368 120.164 134.129 120.331 133.84C120.498 133.551 120.586 133.223 120.585 132.889V109.682C120.585 109.017 120.41 108.363 120.078 107.787C119.745 107.211 119.267 106.732 118.691 106.398L101.369 96.3983C101.083 96.2298 100.758 96.1386 100.426 96.1339ZM120.071 134.274C119.954 134.39 119.822 134.491 119.679 134.574C119.626 134.605 119.571 134.634 119.516 134.661C119.572 134.635 119.626 134.606 119.679 134.574C119.822 134.494 119.953 134.395 120.071 134.281V134.274ZM119.843 107.326C119.948 107.463 120.044 107.607 120.131 107.757C120.047 107.607 119.953 107.463 119.85 107.326H119.843ZM100.419 96.081C100.763 96.0819 101.101 96.1739 101.398 96.3478C101.101 96.1723 100.763 96.0797 100.418 96.0797C100.073 96.0797 99.7351 96.1723 99.4385 96.3478C99.7382 96.1724 100.079 96.0803 100.426 96.081H100.419Z" fill="#06F421"/>
<path d="M110.323 140.238L67.1786 165.142C65.1383 166.319 62.824 166.939 60.4682 166.939C58.1124 166.939 55.7981 166.319 53.7578 165.142L40.3321 157.397L35.4114 154.548L0.69952 134.516C0.503714 134.403 0.341109 134.241 0.228026 134.045C0.114943 133.849 0.0553643 133.627 0.0552843 133.401V107.432C0.0563212 107.207 0.116123 106.987 0.228745 106.792C0.341367 106.598 0.502896 106.436 0.697297 106.323C0.891698 106.211 1.11221 106.151 1.33694 106.15C1.56167 106.148 1.7828 106.206 1.97838 106.317L3.43513 107.16L26.7022 120.593L26.9089 120.709L27.0532 120.793L59.8203 139.714C60.0157 139.827 60.2375 139.887 60.4634 139.887C60.6892 139.887 60.911 139.827 61.1064 139.714L80.5922 128.461L84.6355 126.137C84.8314 126.024 85.0536 125.964 85.2797 125.964C85.5058 125.964 85.728 126.024 85.9239 126.137L110.323 140.238Z" fill="#06F421"/>
<path d="M60.4694 166.969C58.1071 166.971 55.7857 166.352 53.7385 165.173L0.689911 134.543C0.489995 134.427 0.324003 134.26 0.208447 134.06C0.0928916 133.859 0.0317958 133.632 0.0312452 133.401V107.432C0.030951 107.201 0.0912387 106.975 0.20607 106.775C0.320902 106.575 0.486257 106.408 0.68559 106.292C0.884922 106.176 1.11124 106.114 1.34192 106.113C1.57259 106.112 1.79952 106.171 2.00002 106.285L59.8395 139.687C60.0308 139.797 60.2476 139.855 60.4682 139.855C60.6888 139.855 60.9055 139.797 61.0968 139.687L84.6138 126.113C84.8145 125.997 85.042 125.936 85.2737 125.936C85.5054 125.936 85.7329 125.997 85.9336 126.113L110.383 140.238L67.1954 165.173C65.1496 166.351 62.83 166.97 60.4694 166.969ZM1.34857 106.18C1.12731 106.18 0.910146 106.239 0.718756 106.35C0.528071 106.459 0.369598 106.617 0.25941 106.807C0.149223 106.997 0.091236 107.212 0.091342 107.432V133.394C0.0916756 133.614 0.149777 133.831 0.259858 134.022C0.369939 134.213 0.52816 134.372 0.718756 134.483L53.7722 165.125C55.8092 166.297 58.1181 166.914 60.4682 166.914C62.8182 166.914 65.1271 166.297 67.1641 165.125L110.263 140.238L85.9023 126.163C85.711 126.053 85.4943 125.995 85.2737 125.995C85.0531 125.995 84.8364 126.053 84.6451 126.163L61.128 139.74C60.9279 139.856 60.7006 139.917 60.4694 139.917C60.2381 139.917 60.0109 139.856 59.8107 139.74L1.97598 106.35C1.78556 106.239 1.5691 106.18 1.34857 106.18Z" fill="#06F421"/>
<path d="M60.4694 166.969C58.1071 166.971 55.7857 166.352 53.7385 165.173L0.689911 134.543C0.489995 134.427 0.324003 134.26 0.208447 134.06C0.0928916 133.859 0.0317958 133.632 0.0312452 133.401V107.432C0.0311319 107.201 0.0916755 106.974 0.206803 106.774C0.32193 106.574 0.487605 106.408 0.687232 106.292C0.886859 106.176 1.11343 106.115 1.34425 106.114C1.57507 106.113 1.80204 106.173 2.00242 106.288L59.8395 139.687C60.0308 139.797 60.2476 139.855 60.4682 139.855C60.6888 139.855 60.9055 139.797 61.0968 139.687L84.6138 126.113C84.8145 125.997 85.042 125.936 85.2737 125.936C85.5054 125.936 85.7329 125.997 85.9336 126.113L110.338 140.211C110.343 140.214 110.347 140.217 110.35 140.222C110.353 140.227 110.355 140.232 110.354 140.238C110.354 140.243 110.352 140.248 110.349 140.252C110.346 140.256 110.342 140.26 110.338 140.262L67.1954 165.173C65.1496 166.351 62.83 166.97 60.4694 166.969ZM1.34857 106.18C1.12731 106.18 0.910146 106.239 0.718756 106.35C0.5284 106.46 0.370194 106.617 0.260055 106.807C0.149916 106.997 0.091726 107.213 0.091342 107.432V133.394C0.0916756 133.614 0.149777 133.831 0.259858 134.022C0.369939 134.213 0.52816 134.372 0.718756 134.483L53.7722 165.125C55.8092 166.297 58.1181 166.914 60.4682 166.914C62.8182 166.914 65.1271 166.297 67.1641 165.125L110.263 140.238L85.9023 126.163C85.711 126.053 85.4943 125.995 85.2737 125.995C85.0531 125.995 84.8364 126.053 84.6451 126.163L61.128 139.74C60.9275 139.855 60.7004 139.915 60.4694 139.915C60.2383 139.915 60.0113 139.855 59.8107 139.74L1.98559 106.353C1.7926 106.239 1.57258 106.179 1.34857 106.18Z" fill="#06F421"/>
<path d="M60.4694 167C58.1025 167.001 55.7769 166.379 53.7265 165.197L0.673081 134.569C0.468729 134.45 0.299093 134.28 0.181017 134.075C0.0629406 133.87 0.000536431 133.638 5.2006e-08 133.401V107.432C-6.54605e-05 107.196 0.0617652 106.964 0.179322 106.76C0.296879 106.555 0.466044 106.385 0.669926 106.266C0.873809 106.148 1.10527 106.084 1.3412 106.083C1.57713 106.082 1.80927 106.143 2.01444 106.259H2.02646L3.46878 107.1L59.854 139.661C60.0408 139.768 60.2526 139.825 60.4682 139.825C60.6837 139.825 60.8955 139.768 61.0824 139.661L84.5994 126.086C84.8045 125.968 85.037 125.906 85.2737 125.906C85.5104 125.906 85.7429 125.968 85.948 126.086L110.357 140.185C110.366 140.19 110.373 140.198 110.378 140.208C110.383 140.217 110.386 140.227 110.386 140.238C110.385 140.248 110.383 140.258 110.378 140.267C110.373 140.275 110.365 140.283 110.357 140.288L67.2098 165.197C65.1603 166.379 62.8355 167.001 60.4694 167ZM1.34857 106.211C1.02276 106.212 0.710685 106.342 0.480525 106.573C0.250365 106.804 0.120826 107.116 0.120194 107.442V133.394C0.120541 133.609 0.177327 133.821 0.284887 134.007C0.392448 134.193 0.547018 134.348 0.733178 134.456L53.7866 165.087C55.8192 166.256 58.1232 166.871 60.4682 166.871C62.8132 166.871 65.1171 166.256 67.1497 165.087L110.203 140.23L85.8879 126.182C85.7011 126.075 85.4893 126.018 85.2737 126.018C85.0581 126.018 84.8463 126.075 84.6595 126.182L61.1425 139.759C60.937 139.876 60.7046 139.938 60.4682 139.938C60.2317 139.938 59.9993 139.876 59.7939 139.759L1.97358 106.382H1.96155C1.77576 106.272 1.56434 106.213 1.34857 106.211ZM110.323 140.238L110.278 140.262L67.1786 165.147C66.9935 165.252 66.806 165.356 66.6185 165.452C66.8084 165.356 66.9935 165.252 67.1786 165.147L110.323 140.238ZM85.2725 125.966C85.0467 125.966 84.8247 126.025 84.6283 126.137L61.1136 139.714L84.6355 126.137C84.8314 126.024 85.0536 125.964 85.2797 125.964C85.5058 125.964 85.728 126.024 85.9239 126.137C85.726 126.022 85.501 125.963 85.2725 125.966ZM1.34857 106.151C1.15183 106.151 0.957732 106.196 0.781258 106.283C0.957504 106.198 1.15058 106.154 1.34616 106.154C1.54175 106.154 1.73483 106.198 1.91107 106.283C1.73594 106.197 1.54364 106.152 1.34857 106.151Z" fill="#06F421"/>
<rect x="165.758" y="151.366" width="655.853" height="15.9964" fill="#06F421"/>
<rect x="165.758" y="7.39862" width="655.853" height="15.9964" fill="#06F421"/>
<path d="M211.295 43.4201C220.182 43.4201 227.86 44.522 234.33 46.726C240.799 48.9299 245.918 52.0937 249.686 56.2172C253.454 60.3407 256.191 65.033 257.898 70.294C259.675 75.5551 260.564 81.5271 260.564 88.21C260.564 94.893 259.675 100.865 257.898 106.126C256.191 111.387 253.454 116.079 249.686 120.203C245.918 124.326 240.799 127.49 234.33 129.694C227.86 131.898 220.182 133 211.295 133H166.291V43.4201H211.295ZM211.295 108.259C217.338 108.259 222.101 106.624 225.585 103.353C229.14 100.083 230.917 95.0352 230.917 88.21C230.917 81.3138 229.175 76.266 225.691 73.0668C222.208 69.7964 217.409 68.1612 211.295 68.1612H195.938V108.259H211.295ZM273.417 133V43.4201H354.146V67.0948H302.958V78.5055H352.226V97.9145H302.958V109.325H354.146V133H273.417ZM410.703 135.986C395.062 135.915 383.581 133.284 376.258 128.094C369.006 122.904 365.558 114.551 365.913 103.033H392.467C392.823 109.574 398.902 112.88 410.703 112.951C416.107 113.022 420.195 112.382 422.967 111.032C425.811 109.681 427.233 107.903 427.233 105.699C427.233 101.931 423.785 99.5497 416.889 98.5544L405.371 96.7415C395.418 95.1063 388.735 93.7199 385.322 92.5824C375.867 89.312 370.286 83.5177 368.579 75.1996C368.224 73.28 368.046 71.2183 368.046 69.0143C368.046 59.9852 371.672 52.9824 378.924 48.0057C386.247 42.9579 396.911 40.4341 410.917 40.4341C416.32 40.4341 421.119 40.754 425.313 41.3938C429.579 42.0337 433.561 43.1357 437.257 44.6998C441.025 46.1928 444.118 48.1834 446.535 50.6718C448.953 53.089 450.801 56.1816 452.081 59.9497C453.432 63.7177 454.071 68.1256 454 73.1734H427.66C426.522 66.7037 420.728 63.4689 410.277 63.4689C401.034 63.4689 396.413 65.815 396.413 70.5073C396.413 74.1332 399.222 76.3727 404.838 77.2258L414.329 78.8255C415.609 79.0387 417.422 79.3231 419.768 79.6786C422.114 80.0341 424.034 80.3185 425.527 80.5317C427.091 80.745 429.01 81.1005 431.285 81.5982C433.561 82.0247 435.445 82.4869 436.938 82.9845C438.431 83.4111 440.137 84.0154 442.056 84.7975C443.976 85.5795 445.576 86.4326 446.855 87.3569C448.135 88.21 449.415 89.2765 450.694 90.5562C452.045 91.8359 453.112 93.2578 453.894 94.8219C454.676 96.386 455.316 98.1989 455.813 100.261C456.311 102.251 456.56 104.455 456.56 106.873C456.56 126.353 441.274 136.057 410.703 135.986ZM557.884 135.986C544.305 135.986 532.965 131.578 523.865 122.762C514.765 113.875 510.214 102.358 510.214 88.21C510.214 73.8488 514.871 62.2958 524.185 53.5511C533.498 44.8064 545.904 40.4341 561.403 40.4341C566.877 40.4341 572.138 41.1095 577.186 42.4603C582.234 43.8111 586.891 45.8373 591.156 48.5389C595.493 51.1694 599.119 54.7597 602.034 59.3098C605.02 63.7888 606.939 68.9432 607.793 74.773H578.466C577.399 72.3558 575.373 70.294 572.387 68.5878C569.401 66.8104 565.953 65.9217 562.043 65.9217C555.289 65.9217 549.85 67.9479 545.727 72.0003C541.603 76.0528 539.541 81.456 539.541 88.21C539.541 94.893 541.603 100.332 545.727 104.526C549.85 108.65 555.111 110.712 561.51 110.712C565.633 110.712 569.401 109.823 572.814 108.046C576.297 106.268 578.572 103.211 579.639 98.8743H560.017V83.5177H608.219V133H592.436L592.009 118.07C589.023 123.26 584.722 127.561 579.106 130.974C573.489 134.315 566.415 135.986 557.884 135.986ZM622.564 133V43.4201H656.477L686.23 91.8359H688.896V43.4201H717.69V133H684.524L654.024 84.5842H651.358V133H622.564ZM774.222 135.986C758.581 135.915 747.099 133.284 739.776 128.094C732.525 122.904 729.077 114.551 729.432 103.033H755.986C756.342 109.574 762.42 112.88 774.222 112.951C779.625 113.022 783.713 112.382 786.486 111.032C789.33 109.681 790.752 107.903 790.752 105.699C790.752 101.931 787.304 99.5497 780.407 98.5544L768.89 96.7415C758.937 95.1063 752.254 93.7199 748.841 92.5824C739.385 89.312 733.804 83.5177 732.098 75.1996C731.743 73.28 731.565 71.2183 731.565 69.0143C731.565 59.9852 735.191 52.9824 742.442 48.0057C749.765 42.9579 760.43 40.4341 774.435 40.4341C779.839 40.4341 784.637 40.754 788.832 41.3938C793.098 42.0337 797.079 43.1357 800.776 44.6998C804.544 46.1928 807.637 48.1834 810.054 50.6718C812.471 53.089 814.32 56.1816 815.599 59.9497C816.95 63.7177 817.59 68.1256 817.519 73.1734H791.178C790.041 66.7037 784.246 63.4689 773.795 63.4689C764.553 63.4689 759.932 65.815 759.932 70.5073C759.932 74.1332 762.74 76.3727 768.357 77.2258L777.848 78.8255C779.128 79.0387 780.941 79.3231 783.287 79.6786C785.633 80.0341 787.552 80.3185 789.045 80.5317C790.609 80.745 792.529 81.1005 794.804 81.5982C797.079 82.0247 798.963 82.4869 800.456 82.9845C801.949 83.4111 803.655 84.0154 805.575 84.7975C807.495 85.5795 809.094 86.4326 810.374 87.3569C811.654 88.21 812.933 89.2765 814.213 90.5562C815.564 91.8359 816.63 93.2578 817.412 94.8219C818.194 96.386 818.834 98.1989 819.332 100.261C819.83 102.251 820.078 104.455 820.078 106.873C820.078 126.353 804.793 136.057 774.222 135.986Z" fill="white"/>
<path d="M473.774 99.0876L468.016 43.4201H498.515L492.757 99.0876H473.774ZM493.61 130.441C490.695 133.284 487.247 134.706 483.265 134.706C479.284 134.706 475.836 133.284 472.921 130.441C470.006 127.526 468.549 124.113 468.549 120.203C468.549 116.293 470.006 112.916 472.921 110.072C475.836 107.157 479.284 105.699 483.265 105.699C487.247 105.699 490.695 107.157 493.61 110.072C496.525 112.916 497.982 116.293 497.982 120.203C497.982 124.113 496.525 127.526 493.61 130.441Z" fill="#06F421"/>
</svg>
